<?xml version="1.0" encoding="UTF-8" standalone="no"?>
<!-- Generator: Adobe Illustrator 15.1.0, SVG Export Plug-In . SVG Version: 6.00 Build 0)  -->

<svg
   version="1.1"
   id="Layer_1"
   x="0px"
   y="0px"
   width="512px"
   height="512px"
   viewBox="0 0 512 512"
   enable-background="new 0 0 512 512"
   xml:space="preserve"
   sodipodi:docname="sunrise_icon.svg"
   inkscape:version="1.3 (0e150ed6c4, 2023-07-21)"
   inkscape:export-filename="sunrise_icon.png"
   inkscape:export-xdpi="192"
   inkscape:export-ydpi="192"
   xmlns:inkscape="http://www.inkscape.org/namespaces/inkscape"
   xmlns:sodipodi="http://sodipodi.sourceforge.net/DTD/sodipodi-0.dtd"
   xmlns="http://www.w3.org/2000/svg"
   xmlns:svg="http://www.w3.org/2000/svg"><defs
   id="defs32"><linearGradient
   id="swatch61"><stop
     style="stop-color:#000000;stop-opacity:1;"
     offset="0"
     id="stop61" /></linearGradient>&#10;	&#10;&#10;		&#10;	</defs><sodipodi:namedview
   id="namedview32"
   pagecolor="#ffffff"
   bordercolor="#666666"
   borderopacity="1.0"
   inkscape:showpageshadow="2"
   inkscape:pageopacity="0.0"
   inkscape:pagecheckerboard="0"
   inkscape:deskcolor="#d1d1d1"
   inkscape:zoom="0.39697266"
   inkscape:cx="925.75646"
   inkscape:cy="731.78844"
   inkscape:window-width="1920"
   inkscape:window-height="1009"
   inkscape:window-x="1912"
   inkscape:window-y="-8"
   inkscape:window-maximized="1"
   inkscape:current-layer="Layer_1"
   showgrid="true"><inkscape:grid
     id="grid32"
     units="px"
     originx="0"
     originy="0"
     spacingx="1"
     spacingy="1"
     empcolor="#0099e5"
     empopacity="0.30196078"
     color="#0099e5"
     opacity="0.14901961"
     empspacing="5"
     dotted="false"
     gridanglex="30"
     gridanglez="30"
     visible="true" /></sodipodi:namedview>&#10;&#10;<path
   d="m 145.625,288 h 220.75 c 0.792,-5.271 1.625,-10.521 1.625,-16 0,-61.75 -50.25,-112 -112,-112 -61.75,0 -112,50.25 -112,112 0,5.479 0.875,10.729 1.625,16 z"
   id="path36-3"
   sodipodi:nodetypes="ccsssc"
   style="fill:#ffe500;fill-opacity:1" /><path
   id="path37"
   style="fill:#557fff;fill-opacity:1"
   d="M 408,288 H 104 c -8.833,0 -16,7.167 -16,16 0,8.833 7.167,16 16,16 h 304 c 8.833,0 16,-7.167 16,-16 0,-8.833 -7.167,-16 -16,-16 z m -26,64 H 130 c -8.833,0 -16,7.167 -16,16 0,8.833 7.167,16 16,16 h 252 c 8.833,0 16,-7.167 16,-16 0,-8.833 -7.167,-16 -16,-16 z m -26,64 H 156 c -8.833,0 -16,7.167 -16,16 0,8.833 7.167,16 16,16 h 200 c 8.833,0 16,-7.167 16,-16 0,-8.833 -7.167,-16 -16,-16 z"
   sodipodi:nodetypes="sssssssssssssssssssss" /><path
   d="m 145.625,288 h 32 C 176.563,282.833 176,277.479 176,272 c 0,-44.188 35.812,-80 80,-80 44.188,0 80,35.812 80,80 0,5.479 -0.562,10.833 -1.625,16 h 32 c 0.792,-5.271 1.625,-10.521 1.625,-16 0,-61.75 -50.25,-112 -112,-112 -61.75,0 -112,50.25 -112,112 0,5.479 0.875,10.729 1.625,16 z"
   id="path36"
   style="fill:#ff9800;fill-opacity:1" /><path
   d="m 131.541,165.1675 c 6.251,6.25 16.376,6.25 22.625,0 6.251,-6.25 6.251,-16.375 0,-22.625 l -22.625,-22.625 c -6.25,-6.25 -16.374,-6.25 -22.625,0 -6.25,6.25 -6.25,16.375 0,22.625 z"
   id="path35"
   style="fill:#ff9800;fill-opacity:1" /><path
   d="m 400,256 c 0,8.833 7.167,16 16,16 h 32 c 8.833,0 16,-7.167 16,-16 0,-8.833 -7.167,-16 -16,-16 h -32 c -8.833,0 -16,7.167 -16,16 z"
   id="path34"
   style="fill:#ff9800;fill-opacity:1" /><path
   d="m 64,272 h 32 c 8.833,0 16,-7.167 16,-16 0,-8.833 -7.167,-16 -16,-16 H 64 c -8.833,0 -16,7.167 -16,16 0,8.833 7.167,16 16,16 z"
   id="path33"
   style="fill:#ff9800;fill-opacity:1" /><path
   d="m 380.438,165.1675 22.625,-22.625 c 6.249,-6.25 6.249,-16.375 0,-22.625 -6.25,-6.25 -16.375,-6.25 -22.625,0 l -22.625,22.625 c -6.25,6.25 -6.25,16.375 0,22.625 6.25,6.25 16.375,6.25 22.625,0 z"
   id="path32"
   style="fill:#ff9800;fill-opacity:1" /><path
   d="m 256,127 c 8.833,0 16,-7.167 16,-16 V 79 c 0,-8.833 -7.167,-16 -16,-16 -8.833,0 -16,7.167 -16,16 v 32 c 0,8.833 7.167,16 16,16 z"
   id="path30"
   style="fill:#ff9800;fill-opacity:1" />&#10;</svg>
